<svg width="32" height="30" viewBox="0 0 32 30" fill="none" xmlns="http://www.w3.org/2000/svg">
<path d="M9.56812 3.9145C9.12752 2.92196 7.96593 2.39368 6.85583 2.6765L1.82035 3.95719C0.824703 4.21333 0.132324 5.05645 0.132324 6.01697C0.132324 19.2188 11.6109 29.9232 25.7675 29.9232C26.7975 29.9232 27.7016 29.2775 27.9762 28.349L29.3495 23.6532C29.6528 22.6179 29.0863 21.5347 28.022 21.1238L22.5288 18.9893C21.5961 18.6265 20.5146 18.8773 19.8794 19.6083L17.5677 22.2391C13.5393 20.4621 10.2777 17.4205 8.3722 13.6638L11.1932 11.5133C11.9771 10.9156 12.2461 9.91241 11.857 9.0426L9.56812 3.91984V3.9145Z" fill="#B80909"/>
<path fill-rule="evenodd" clip-rule="evenodd" d="M31.8782 5.24826C31.8782 7.89682 29.2467 10.0439 26.0011 10.0439C24.958 10.048 23.9291 9.81768 23.0016 9.3725L20.124 10.0439L21.107 7.90436C20.4862 7.14391 20.124 6.23068 20.124 5.24826C20.124 2.59971 22.7555 0.452637 26.0011 0.452637C29.2467 0.452637 31.8782 2.59971 31.8782 5.24826ZM23.7972 4.56317H22.3279V5.93335H23.7972V4.56317ZM29.6743 4.56317H28.205V5.93335H29.6743V4.56317ZM25.2665 4.56317H26.7357V5.93335H25.2665V4.56317Z" fill="#000103"/>
</svg>
